<?xml version="1.0" encoding="utf-8"?>
<!-- Generator: Adobe Illustrator 16.0.0, SVG Export Plug-In . SVG Version: 6.00 Build 0)  -->
<!DOCTYPE svg PUBLIC "-//W3C//DTD SVG 1.1//EN" "http://www.w3.org/Graphics/SVG/1.1/DTD/svg11.dtd">
<svg version="1.1" id="Layer_1" xmlns="http://www.w3.org/2000/svg" xmlns:xlink="http://www.w3.org/1999/xlink" x="0px" y="0px"
	 width="3840px" height="1080px" viewBox="0 0 3840 1080" enable-background="new 0 0 3840 1080" xml:space="preserve">
<g>
	<path fill="#D02027" d="M1955.752,297.098c7.812,0,15.656,0.217,23.548,0.646c63.998,3.474,123.64,21.047,177.447,56.174
		c74.774,48.814,123.189,116.873,144.006,203.742c18.137,75.684,12.685,150.03-18.358,221.628
		c-34.522,79.623-92.01,137.474-170.649,173.981c-49.565,23.009-101.449,33.433-155.105,33.433c-10.399,0-20.859-0.392-31.389-1.158
		c-52.913-3.854-103.045-17.583-149.329-43.634c-83.272-46.872-137.496-116.667-162.62-208.954c-0.787-2.89-1.616-5.768-2.457-8.643
		c-0.124-0.425-0.422-0.8-1.025-1.902c0,7.751,0,14.722,0,21.692c0.001,67.666,0.01,135.331,0,202.996
		c-0.003,21.167-11.236,32.373-32.413,32.377c-13.362,0.003-26.726,0.045-40.088,0.045c-9.637,0-19.273-0.022-28.91-0.096
		c-19.335-0.148-35.306-7.695-47.091-23.147c-74.264-97.375-148.447-194.811-222.66-292.224
		c-22.818-29.952-45.632-59.908-68.501-89.822c-1.642-2.147-3.724-3.958-5.601-5.926c-0.521,0.163-1.044,0.326-1.566,0.488
		c-0.337,3.54-0.956,7.079-0.966,10.62c-0.078,30.166-0.046,60.332-0.045,90.498c0.002,92.331-0.305,184.664,0.245,276.992
		c0.122,20.455-13.576,32.759-31.917,32.759c-0.303,0-0.605-0.003-0.91-0.01c-11.901-0.261-23.806-0.339-35.712-0.339
		c-17.689,0-35.386,0.172-53.076,0.172c-0.237,0-0.469,0-0.706,0c-18.726-0.006-30.76-11.853-30.763-30.525
		c-0.027-204.663-0.026-409.325-0.007-613.987c0.001-18.605,11.726-30.347,30.211-30.374c16.133-0.023,32.268-0.081,48.401-0.081
		c11.699,0,23.398,0.03,35.097,0.125c18.271,0.147,33.491,7.604,44.508,22.051c93.546,122.688,186.906,245.519,280.355,368.28
		c1.958,2.572,4.314,4.839,6.485,7.248c0.554-0.131,1.106-0.262,1.66-0.394c0.336-3.146,0.959-6.29,0.964-9.437
		c0.063-44.166,0.042-88.331,0.043-132.497c0-74.665,0.05-149.33-0.052-223.995c-0.015-10.895,3.232-19.962,12.347-26.396
		c5.037-3.556,10.702-4.947,16.867-4.947c0.033,0,0.064,0,0.097,0c10.717,0.025,21.437,0.032,32.154,0.032
		c10.964,0,21.927-0.007,32.891-0.007c9.651,0,19.302,0.005,28.953,0.025c17.855,0.036,29.688,11.94,29.696,29.874
		c0.032,73.832,0.011,147.663,0.009,221.495c0,2.289,0,4.578,0,6.868c0.198,0.031,0.396,0.062,0.594,0.094
		c2.689-9.204,5.094-18.504,8.113-27.599c30.474-91.814,89.353-159.151,175.951-201.817
		C1845.557,308.356,1899.601,297.098,1955.752,297.098 M1955.109,851.465c10.627,0,21.444-0.776,32.441-2.305
		c50.787-7.057,93.097-30.274,124.325-70.943c47.1-61.338,56.696-130.329,35.03-203.411
		c-25.688-86.647-101.9-142.464-191.539-142.949c-9.455,0.783-18.978,1.094-28.354,2.426
		c-63.111,8.964-111.193,40.926-143.171,95.979c-26.071,44.884-33.416,93.724-26.024,144.719
		c7.874,54.321,32.307,99.909,75.616,134.144C1869.95,837.989,1910.862,851.465,1955.109,851.465 M1955.752,296.098
		c-28.549,0-56.392,2.96-82.755,8.799c-27.337,6.054-53.903,15.383-78.961,27.729c-43.254,21.311-80.039,49.141-109.334,82.718
		c-29.346,33.635-51.93,73.902-67.125,119.682c-2.07,6.236-3.879,12.663-5.628,18.877c-0.371,1.319-0.748,2.658-1.129,4.003v-1.929
		l0.004-58.898c0.005-53.292,0.01-108.398-0.013-162.598c-0.008-18.429-12.343-30.836-30.694-30.874
		c-9.652-0.02-19.303-0.025-28.955-0.025c-5.482,0-10.964,0.002-16.446,0.003c-5.482,0.002-10.963,0.003-16.445,0.003
		c-12.923,0-22.839-0.01-32.151-0.032h-0.1c-6.847,0-12.553,1.678-17.443,5.13c-8.609,6.078-12.787,14.98-12.77,27.215
		c0.077,56.183,0.067,113.308,0.058,168.551c-0.003,18.481-0.006,36.962-0.006,55.443l0.001,27.732
		c0.003,34.336,0.006,69.842-0.044,104.764c-0.003,2.081-0.295,4.23-0.577,6.31c-0.103,0.759-0.209,1.538-0.301,2.317l-0.402,0.095
		c-0.572-0.624-1.155-1.243-1.723-1.845c-1.478-1.566-3.006-3.187-4.31-4.899c-30.33-39.843-60.649-79.693-90.969-119.543
		c-62.044-81.546-126.202-165.868-189.387-248.738c-11.083-14.533-26.746-22.294-45.295-22.444
		c-10.514-0.085-21.669-0.125-35.105-0.125c-10.11,0-20.389,0.023-30.33,0.045c-6.024,0.014-12.048,0.027-18.072,0.036
		c-9.347,0.014-17.211,2.958-22.744,8.515c-5.538,5.561-8.465,13.466-8.465,22.859c-0.021,221.032-0.019,421.869,0.007,613.987
		c0.003,19.146,12.471,31.52,31.762,31.525h0.353h0.354c8.847,0,17.843-0.044,26.543-0.086c8.697-0.042,17.69-0.086,26.533-0.086
		c13.813,0,25.154,0.107,35.69,0.339c0.312,0.007,0.622,0.01,0.932,0.01c9.442,0,17.885-3.261,23.771-9.183
		c6.042-6.079,9.205-14.579,9.146-24.582c-0.404-67.866-0.345-136.872-0.287-203.606c0.021-24.46,0.042-48.92,0.042-73.38
		l-0.004-19.934c-0.006-23.127-0.012-47.042,0.049-70.562c0.006-2.362,0.299-4.793,0.582-7.143c0.107-0.893,0.218-1.809,0.313-2.723
		l0.346-0.108c0.472,0.482,0.952,0.957,1.42,1.419c1.337,1.32,2.6,2.567,3.677,3.977c20.917,27.36,42.137,55.216,62.659,82.153
		l5.841,7.667c19.927,26.157,39.853,52.316,59.778,78.476c53.371,70.067,108.559,142.521,162.882,213.749
		c11.797,15.467,27.906,23.388,47.878,23.541c8.511,0.065,17.699,0.096,28.917,0.096c6.917,0,13.834-0.012,20.751-0.022
		c6.446-0.011,12.892-0.021,19.337-0.022c10.815-0.002,19.177-2.877,24.854-8.545c5.678-5.67,8.558-14.024,8.56-24.832
		c0.007-47.663,0.005-95.326,0.002-142.99l-0.002-60.006v-16.291c0.494,1.716,1.011,3.547,1.518,5.406
		c12.544,46.079,32.624,87.079,59.68,121.859c27.084,34.815,61.878,64.323,103.415,87.703
		c44.487,25.039,94.869,39.763,149.748,43.76c10.574,0.771,21.159,1.161,31.461,1.161c55.278,0,107.605-11.279,155.526-33.525
		c39.416-18.299,73.788-42.196,102.161-71.028c28.618-29.082,51.828-63.893,68.984-103.463
		c30.631-70.646,36.826-145.425,18.414-222.259c-10.37-43.273-27.84-82.465-51.925-116.486
		c-23.993-33.891-55.117-63.451-92.507-87.86c-26.381-17.222-55.03-30.705-85.152-40.075c-29.005-9.022-60.224-14.493-92.787-16.26
		C1971.438,296.316,1963.498,296.098,1955.752,296.098L1955.752,296.098z M1955.109,850.465c-44.965,0-85.694-14.173-121.056-42.126
		c-41.889-33.111-67.206-78.028-75.247-133.503c-7.658-52.83,1.056-101.304,25.899-144.073c15.805-27.21,35.858-49.06,59.602-64.944
		c23.65-15.821,51.523-26.098,82.845-30.547c6.374-0.905,12.942-1.345,19.295-1.77c2.938-0.196,5.974-0.399,8.958-0.646
		c43.918,0.248,85.108,13.722,119.116,38.967c34.231,25.412,58.93,61.121,71.425,103.267
		c22.298,75.214,10.568,143.352-34.864,202.518c-30.446,39.65-72.055,63.391-123.67,70.562
		C1976.45,849.692,1965.582,850.465,1955.109,850.465L1955.109,850.465z"/>
</g>
<g>
	<path fill="#D02027" d="M902.401,304.386c18.79,0,30.65,14.487,30.62,31.449c-0.287,156.979-0.168,313.96-0.168,470.94
		c0,46.993,0.014,93.987-0.007,140.981c-0.009,20.196-11.451,31.681-31.554,31.703c-13.645,0.016-27.29,0.054-40.935,0.054
		c-9.519,0-19.038-0.019-28.556-0.075c-19.726-0.119-35.825-7.889-47.848-23.669c-96.217-126.29-192.415-252.596-288.65-378.871
		c-2.327-3.053-5.033-5.815-7.562-8.714c-0.591,0.218-1.181,0.437-1.772,0.654c-0.313,3.883-0.896,7.766-0.898,11.648
		c-0.052,86.323-0.04,172.646-0.041,258.968c0,36.328-0.443,72.665,0.18,108.982c0.311,18.165-13.041,31.16-30.745,31.16
		c-0.181,0-0.361-0.001-0.543-0.004c-12.13-0.182-24.265-0.234-36.397-0.234c-16.961,0-33.923,0.104-50.884,0.104
		c-0.903,0-1.803,0-2.706-0.001c-20.2-0.014-31.734-11.44-31.735-31.518c-0.015-204.307-0.018-408.613-0.006-612.92
		c0.001-18.639,11.641-30.386,30.147-30.42c15.732-0.029,31.467-0.081,47.199-0.081c12.097,0,24.193,0.031,36.29,0.127
		c18.471,0.146,33.742,7.776,44.865,22.368c93.52,122.688,186.87,245.504,280.303,368.258c1.862,2.446,4.109,4.6,6.176,6.89
		c0.63-0.164,1.26-0.328,1.889-0.492c0.279-3.561,0.799-7.121,0.801-10.683c0.044-88.988,0.032-177.978,0.034-266.966
		c0-29.83-0.056-59.659,0.045-89.488c0.05-14.646,7.689-25.319,20.697-28.929c3.147-0.873,6.583-0.969,9.887-0.977
		c1.825-0.004,3.656-0.006,5.481-0.006c16.281,0,32.562,0.149,48.843,0.149c12.223,0,24.443-0.084,36.659-0.378
		C901.808,304.389,902.106,304.386,902.401,304.386 M902.401,303.386c-0.303,0-0.609,0.004-0.916,0.011
		c-10.707,0.258-22.348,0.378-36.635,0.378c-8.138,0-16.414-0.038-24.417-0.075c-8.005-0.037-16.283-0.074-24.426-0.074
		c-1.826,0-3.658,0.002-5.484,0.006c-3.172,0.008-6.834,0.093-10.151,1.013c-13.368,3.709-21.378,14.883-21.43,29.889
		c-0.075,21.92-0.063,44.207-0.053,65.759c0.004,7.911,0.008,15.821,0.008,23.732v53.53c0,69.954,0.001,142.29-0.034,213.436
		c-0.001,2.38-0.246,4.825-0.481,7.19c-0.088,0.886-0.179,1.795-0.258,2.703l-0.618,0.161c-0.537-0.584-1.083-1.162-1.616-1.726
		c-1.406-1.486-2.86-3.024-4.097-4.649c-30.642-40.258-61.274-80.521-91.907-120.785c-61.723-81.13-125.547-165.021-188.396-247.473
		c-11.399-14.955-26.759-22.613-45.652-22.762c-10.907-0.086-22.441-0.127-36.297-0.127c-10.863,0-21.907,0.025-32.588,0.05
		c-4.871,0.011-9.742,0.022-14.613,0.031c-9.352,0.017-17.208,2.967-22.721,8.529c-5.51,5.561-8.423,13.476-8.424,22.891
		c-0.011,195.872-0.009,402.088,0.006,612.92c0.001,20.651,11.933,32.503,32.735,32.518l2.706,0.001
		c8.481,0,17.105-0.026,25.445-0.052c8.338-0.025,16.96-0.052,25.439-0.052c14.135,0,25.696,0.074,36.382,0.234
		c0.188,0.003,0.372,0.004,0.558,0.004c8.982,0,17.151-3.277,23-9.228c5.792-5.892,8.897-14.042,8.745-22.95
		c-0.44-25.657-0.347-51.76-0.256-77.002c0.037-10.477,0.076-21.309,0.076-31.963l0-42.499
		c-0.001-70.948-0.002-144.312,0.041-216.468c0.001-2.6,0.276-5.269,0.541-7.85c0.104-1.01,0.21-2.048,0.301-3.082l0.29-0.107
		l0.242-0.089c0.667,0.756,1.348,1.507,2.009,2.237c1.719,1.897,3.496,3.86,5.056,5.907
		c63.916,83.867,127.815,167.747,191.714,251.628c32.312,42.415,64.623,84.829,96.936,127.243
		c12.072,15.845,28.436,23.94,48.637,24.062c8.588,0.052,17.664,0.075,28.562,0.075c8.667,0,17.333-0.015,26-0.03
		c4.979-0.009,9.957-0.018,14.935-0.023c20.679-0.023,32.543-11.942,32.553-32.703c0.015-33.493,0.012-66.986,0.009-100.479
		l-0.002-40.502c0-35.517-0.006-71.033-0.012-106.55c-0.021-119.431-0.042-242.927,0.181-364.389
		c0.017-9.182-3.289-17.559-9.308-23.588C918.926,306.45,911.21,303.386,902.401,303.386L902.401,303.386z"/>
</g>
<g>
	<path fill="#D02027" d="M3392.912,303.958c24.294,0,48.577,0.128,72.863,0.543c130.964,2.24,241.685,79.509,295.135,187.591
		c26.746,54.082,37.569,111.286,33.15,171.522c-9.703,132.283-98.843,248.014-225.997,291.723
		c-36.172,12.434-73.442,18.065-111.662,18.065c-0.087,0-0.172,0-0.259,0c-37.076-0.024-74.169-0.041-111.245-0.041
		c-68.257,0-136.497,0.055-204.754,0.214c-0.033,0-0.068,0-0.102,0c-8.684,0-15.848-2.616-22.553-7.552
		c-20.943-15.415-31.109-36.661-31.986-62.14c-0.791-22.974-0.301-45.992-0.352-68.991c-0.002-0.805,0.246-1.61,0.494-3.123
		c1.824,0,3.46,0,5.032,0c0.786,0,1.557,0,2.327,0c2.482,0,4.981,0,7.465,0c66.664,0,133.331,0.111,199.996,0.111
		c50.852,0,101.687-0.064,152.537-0.295c82.508-0.373,151.776-53.224,174.453-132.684c16.268-57.001,11.636-112.354-18.574-164.066
		c-28.092-48.085-70.36-76.84-125.193-86.619c-10.592-1.889-21.514-2.647-32.287-2.677c-10.08-0.027-20.162-0.038-30.242-0.038
		c-35.216,0-70.435,0.129-105.649,0.129c-23.204,0-46.403-0.056-69.605-0.242c-0.296-0.002-0.594-0.003-0.889-0.003
		c-32.08-0.001-55.759,13.965-73.699,39.653c-1.506,2.155-2.968,4.342-4.892,7.16c-0.475-1.578-0.954-2.429-0.952-3.277
		c0.052-20.997-0.716-42.041,0.414-62.981c3.159-58.562,48.371-109.126,106.078-119.287c8.812-1.552,17.869-2.376,26.815-2.399
		C3330.153,304.171,3361.538,303.958,3392.912,303.958 M3392.912,302.958c-19.461,0-39.251,0.083-58.39,0.164
		c-11.916,0.05-23.831,0.101-35.745,0.132c-8.94,0.023-18.02,0.836-26.985,2.415c-28.164,4.959-54.469,19.809-74.068,41.813
		c-19.636,22.045-31.297,49.89-32.836,78.405c-0.79,14.656-0.651,29.593-0.518,44.038c0.059,6.228,0.118,12.668,0.103,18.995
		c-0.002,0.722,0.229,1.362,0.522,2.172c0.146,0.402,0.311,0.857,0.472,1.396l0.604,2.005l1.181-1.729
		c0.648-0.95,1.244-1.829,1.808-2.659c1.118-1.646,2.083-3.069,3.077-4.493c18.435-26.396,42.273-39.227,72.88-39.226
		c0.292,0,0.588,0.001,0.881,0.003c20.603,0.165,42.722,0.241,69.613,0.241c17.608,0,35.512-0.032,52.826-0.064
		c17.313-0.031,35.216-0.064,52.823-0.064c10.935,0,20.826,0.012,30.239,0.038c11.583,0.031,22.388,0.927,32.114,2.661
		c54.949,9.8,96.839,38.781,124.506,86.139c29.01,49.659,35.226,104.596,18.476,163.288c-11.073,38.803-33.354,71.819-64.434,95.479
		c-31.111,23.683-68.824,36.298-109.062,36.479c-44.532,0.201-93.001,0.295-152.532,0.295c-33.332,0-67.223-0.028-99.998-0.056
		c-32.774-0.027-66.666-0.056-99.998-0.056h-7.465h-2.327h-2.329h-2.703h-0.85l-0.137,0.838c-0.087,0.529-0.174,0.97-0.25,1.354
		c-0.145,0.736-0.26,1.318-0.258,1.934c0.016,6.825-0.018,13.769-0.05,20.483c-0.076,15.913-0.155,32.368,0.401,48.54
		c0.916,26.598,11.814,47.764,32.394,62.911c7.18,5.285,14.534,7.746,23.146,7.746h0.104c61.86-0.144,128.836-0.214,204.751-0.214
		c33.49,0,69.878,0.014,111.244,0.041h0.26c39.331,0,77.009-6.097,111.987-18.12c62.491-21.48,116.957-60.549,157.509-112.979
		c40.463-52.317,64.379-114.427,69.16-179.615c2.214-30.174,0.564-59.893-4.903-88.331c-5.507-28.646-15.045-56.809-28.348-83.708
		c-26.903-54.401-68.001-100.697-118.85-133.88c-52.745-34.421-114.008-53.187-177.165-54.267
		C3444.119,303.131,3420.961,302.958,3392.912,302.958L3392.912,302.958z"/>
</g>
<g>
	<path fill="#D02027" d="M2353.61,297.432c0.072,0,0.143,0,0.216,0c53.376,2.165,94.26,25.711,119.19,73.327
		c11.379,21.73,19.166,45.347,28.504,68.14c49.777,121.514,99.408,243.086,149.393,364.515c9.876,23.99,20.43,47.753,31.87,71.031
		c8.983,18.28,21.701,34.203,39.544,44.744c8.029,4.744,17.225,7.712,26.166,10.65c6.131,2.015,7.052,2.812,3.092,8.207
		c-8.506,11.591-19.457,20.548-31.693,27.881c-21.581,12.933-44.699,20.312-69.321,20.312c-4.236,0-8.512-0.218-12.837-0.664
		c-51.548-5.312-90.455-30.935-110.843-78.614c-59.744-139.719-117.931-280.104-176.733-420.225
		c-22.54-53.712-45.088-107.421-67.644-161.126c-3.029-7.213-2.96-7.006,4.182-10.612
		C2307.731,304.373,2329.692,297.432,2353.61,297.432 M2353.61,296.432c-21.786,0-43.821,5.781-67.366,17.673l-0.561,0.283
		c-7.056,3.556-7.247,4.096-4.11,11.565c22.574,53.749,45.122,107.458,67.662,161.169c16.668,39.719,33.565,80.125,49.906,119.2
		c41.307,98.775,84.02,200.914,126.83,301.031c10.073,23.559,24.905,42.272,44.084,55.622c18.607,12.952,41.343,20.89,67.575,23.594
		c4.308,0.443,8.661,0.669,12.939,0.669c23.69,0,47.187-6.882,69.835-20.454c13.609-8.155,24.072-17.362,31.986-28.146
		c1.94-2.646,2.964-4.49,2.45-6.095c-0.558-1.741-2.653-2.542-6.036-3.654l-0.655-0.215c-8.641-2.839-17.575-5.773-25.314-10.347
		c-16.244-9.596-29.418-24.509-39.155-44.324c-10.885-22.147-21.301-45.362-31.843-70.971
		c-35.363-85.91-71.14-173.331-105.737-257.875c-14.548-35.547-29.095-71.095-43.654-106.638
		c-2.816-6.873-5.537-13.941-8.168-20.777c-6.1-15.844-12.406-32.227-20.376-47.447c-24.489-46.774-64.876-71.625-120.036-73.862
		L2353.61,296.432L2353.61,296.432z"/>
</g>
<g>
	<path fill="#D02027" d="M229.644,305.534c18.204-0.001,26.75,13.27,26.723,27.468c-0.2,102.996-0.107,205.992-0.107,308.988
		c-0.089,0-0.177,0-0.266,0c0,103.33,0.007,206.659-0.008,309.989c-0.002,13.3-5.538,22.148-16.406,25.769
		c-2.928,0.976-6.209,1.225-9.329,1.232c-19.85,0.047-39.701,0.077-59.551,0.077c-14.649,0-29.297-0.017-43.946-0.054
		c-15.846-0.04-25.796-10.165-25.794-26.015c0.023-206.493,0.058-412.986,0.101-619.48c0.003-13.711,5.378-22.66,16.311-26.421
		c3.218-1.107,6.856-1.365,10.304-1.375c4.477-0.013,8.957-0.018,13.434-0.018c15.63,0,31.263,0.06,46.893,0.06
		c13.726,0,27.445-0.046,41.168-0.218C229.327,305.535,229.486,305.534,229.644,305.534 M229.645,304.534h-0.001
		c-0.161,0-0.325,0.001-0.487,0.003c-12.016,0.151-24.709,0.218-41.156,0.218c-7.814,0-15.629-0.015-23.444-0.03
		c-7.816-0.015-15.633-0.03-23.449-0.03c-4.478,0-8.958,0.005-13.437,0.018c-2.802,0.008-6.952,0.165-10.626,1.43
		c-11.268,3.875-16.982,13.083-16.985,27.366c-0.042,206.494-0.078,412.987-0.101,619.48c-0.001,16.369,10.515,26.974,26.792,27.015
		c14.127,0.036,28.502,0.054,43.948,0.054c18.316,0,37.796-0.025,59.553-0.077c3.98-0.01,7.044-0.418,9.643-1.283
		c11.178-3.724,17.088-12.962,17.09-26.718c0.012-78.355,0.01-156.712,0.009-235.067l-0.001-73.922h0.266v-1
		c0-24.801-0.005-49.602-0.011-74.402c-0.017-76.886-0.034-156.39,0.118-234.584c0.016-8.379-2.805-15.83-7.945-20.979
		C244.531,307.124,237.692,304.534,229.645,304.534L229.645,304.534z"/>
</g>
<g>
	<path fill="#D02027" d="M2943.767,303.334c18.414,0,36.881,4.138,55.365,12.203c15.307,6.679,29.345,14.955,40.642,27.435
		c0.985,1.089,1.922,2.222,3.074,3.557c-1.153,0.659-1.942,1.26-2.83,1.596c-36.644,13.838-61.552,40.155-76.37,75.465
		c-69.23,164.969-137.903,330.17-206.616,495.355c-1.589,3.819-3.21,5.443-6.2,5.443c-0.967,0-2.077-0.17-3.377-0.49
		c-19.217-4.738-33.657-16.239-45.86-31.124c-10.877-13.267-18.452-28.461-25.258-44.063c-6.521-14.947-12.99-29.92-19.166-45.011
		c-0.939-2.294-0.992-5.623-0.067-7.913c56.208-139.183,112.27-278.426,169.138-417.338c11.793-28.807,34.03-49.2,62.165-62.345
		C2906.782,307.519,2925.248,303.334,2943.767,303.334 M2943.767,302.334L2943.767,302.334c-18.744,0-37.513,4.328-55.784,12.864
		c-30.3,14.155-51.384,35.309-62.668,62.872c-48.12,117.544-96.458,237.295-143.204,353.103
		c-8.645,21.414-17.288,42.827-25.936,64.24c-1.017,2.519-0.988,6.082,0.069,8.666c6.256,15.285,12.913,30.676,19.175,45.031
		c6.138,14.071,13.955,30.337,25.401,44.298c14.036,17.121,28.778,27.117,46.395,31.461c1.417,0.35,2.601,0.52,3.616,0.52
		c3.82,0,5.61-2.422,7.123-6.06l13.662-32.843c63.082-151.656,128.312-308.476,192.953-462.509
		c15.318-36.501,40.822-61.707,75.802-74.917c0.678-0.257,1.261-0.619,1.937-1.038c0.316-0.197,0.656-0.408,1.036-0.625l1.055-0.603
		l-0.794-0.919c-0.386-0.447-0.747-0.871-1.094-1.278c-0.686-0.803-1.332-1.562-1.996-2.296
		c-10.002-11.049-23.024-19.844-40.982-27.68C2980.847,306.468,2962.085,302.334,2943.767,302.334L2943.767,302.334z"/>
</g>
<g>
	<path fill="#D02027" d="M3046.849,355.144c2.558,0,4.445,1.426,6.462,4.532c15.003,23.113,22.987,48.288,23.024,75.849
		c0.211,154.448,0.333,308.896,0.541,463.344c0.039,28.894,10.06,53.349,32.788,71.962c0.491,0.402,0.876,0.936,2.351,2.538
		c-7.093,0-13.687-0.003-20.088-0.003c-3.896,0-7.721,0.001-11.547,0.005c-3.99,0.005-7.984,0.04-11.974,0.04
		c-15.153,0-30.257-0.516-44.99-5.218c-47.588-15.188-78.153-46.881-90.722-95.153c-2.98-11.445-3.926-23.699-3.967-35.587
		c-0.35-100.966-0.288-201.933-0.254-302.899c0.002-3.068,0.531-6.354,1.696-9.172c13.671-33.06,27.079-66.237,41.428-99.003
		c14.258-32.558,37.198-56.829,70.821-70.199C3044.129,355.499,3045.572,355.144,3046.849,355.144 M3046.85,354.144L3046.85,354.144
		c-1.377,0-2.902,0.352-4.8,1.106c-32.456,12.906-56.468,36.702-71.368,70.727c-11.211,25.601-22.024,51.88-32.48,77.294
		c-2.981,7.245-5.962,14.489-8.955,21.728c-1.141,2.759-1.771,6.152-1.772,9.554l-0.007,18.884
		c-0.033,93.089-0.067,189.346,0.261,284.02c0.048,13.965,1.356,25.687,3.999,35.835c12.565,48.261,43.312,80.511,91.386,95.854
		c15.223,4.858,30.723,5.265,45.294,5.265c2.13,0,4.262-0.01,6.394-0.021c1.861-0.009,3.722-0.018,5.581-0.02
		c3.826-0.004,7.649-0.005,11.546-0.005l9.528,0.001l10.56,0.002h2.279l-1.543-1.677c-0.572-0.622-0.979-1.082-1.291-1.435
		c-0.517-0.583-0.802-0.905-1.162-1.2c-10.971-8.984-19.255-19.67-24.622-31.758c-5.156-11.612-7.78-24.879-7.8-39.432
		c-0.103-75.936-0.184-151.87-0.266-227.805c-0.082-77.199-0.168-157.026-0.275-235.54c-0.036-27.044-7.837-52.746-23.186-76.392
		C3051.88,355.635,3049.696,354.144,3046.85,354.144L3046.85,354.144z"/>
</g>
<g>
	<path fill="#D02027" d="M3272.411,454.104c11.375,0,22.749,0.03,34.123,0.031c6.876,0.001,6.89,0.006,6.891,6.714
		c0.004,49.644,0.002,99.287,0.002,148.93c-0.001,49.644,0.002,99.287-0.005,148.931c-0.001,6.584-0.03,6.425-6.556,6.668
		c-2.318,0.087-4.629,0.131-6.927,0.131c-26.288,0-51.179-5.8-73.572-20.519c-39.315-25.84-59.819-62.675-60.794-109.658
		c-0.736-35.468-0.303-70.965-0.01-106.445c0.05-6.028,0.994-12.464,3.275-17.988c11.145-26.994,29.142-47.162,58.398-54.979
		c4.917-1.313,10.205-1.664,15.328-1.707C3252.513,454.127,3262.462,454.104,3272.411,454.104 M3272.411,453.104
		c-11.753,0-21.239,0.035-29.854,0.108c-4.016,0.034-9.999,0.251-15.577,1.741c-27.322,7.3-46.643,25.475-59.064,55.563
		c-2.699,6.535-3.312,13.592-3.352,18.362l-0.098,11.416c-0.271,31.16-0.55,63.38,0.107,95.059
		c0.98,47.239,21.586,84.408,61.244,110.474c21.176,13.917,45.422,20.683,74.122,20.683c2.282,0,4.625-0.044,6.964-0.132
		l0.454-0.017c6.602-0.242,7.063-0.742,7.064-7.65c0.005-35.353,0.005-70.704,0.005-106.057v-42.874v-37.232
		c0.001-37.232,0.001-74.465-0.002-111.697c-0.001-7.28-0.443-7.713-7.891-7.714c-5.586,0-11.172-0.008-16.758-0.016
		C3283.987,453.111,3278.199,453.104,3272.411,453.104L3272.411,453.104z"/>
</g>
</svg>
