<?xml version="1.0" encoding="utf-8"?>
<!-- Generator: Adobe Illustrator 16.0.0, SVG Export Plug-In . SVG Version: 6.00 Build 0)  -->
<!DOCTYPE svg PUBLIC "-//W3C//DTD SVG 1.1//EN" "http://www.w3.org/Graphics/SVG/1.1/DTD/svg11.dtd">
<svg version="1.1" id="Layer_1" xmlns="http://www.w3.org/2000/svg" xmlns:xlink="http://www.w3.org/1999/xlink" x="0px" y="0px"
	 width="3840px" height="1080px" viewBox="0 0 3840 1080" enable-background="new 0 0 3840 1080" xml:space="preserve">
<path fill-rule="evenodd" clip-rule="evenodd" d="M1609.819,722.411c0,7.751,0,14.722,0,21.692c0.001,67.666,0.01,135.331,0,202.996
	c-0.003,21.167-11.236,32.373-32.413,32.377c-22.999,0.005-46,0.125-68.998-0.051c-19.335-0.148-35.306-7.695-47.091-23.147
	c-74.264-97.375-148.447-194.811-222.66-292.224c-22.818-29.952-45.632-59.908-68.501-89.822c-1.642-2.147-3.724-3.958-5.601-5.926
	c-0.521,0.163-1.044,0.326-1.566,0.488c-0.337,3.54-0.956,7.079-0.966,10.62c-0.078,30.166-0.046,60.332-0.045,90.498
	c0.002,92.331-0.305,184.664,0.245,276.992c0.124,20.793-14.03,33.162-32.827,32.749c-29.818-0.654-59.661-0.159-89.494-0.167
	c-18.726-0.006-30.76-11.853-30.763-30.525c-0.027-204.663-0.026-409.325-0.007-613.987c0.001-18.605,11.726-30.347,30.211-30.374
	c27.833-0.04,55.667-0.182,83.498,0.045c18.271,0.147,33.491,7.604,44.508,22.051c93.546,122.688,186.906,245.519,280.355,368.28
	c1.958,2.572,4.314,4.839,6.485,7.248c0.554-0.131,1.106-0.262,1.66-0.394c0.336-3.146,0.959-6.29,0.964-9.437
	c0.063-44.166,0.042-88.331,0.043-132.497c0-74.665,0.05-149.33-0.052-223.995c-0.015-10.895,3.232-19.962,12.347-26.396
	c5.063-3.574,10.761-4.962,16.964-4.947c31.333,0.074,62.666-0.014,93.998,0.05c17.855,0.036,29.688,11.94,29.696,29.874
	c0.032,73.832,0.011,147.663,0.009,221.495c0,2.289,0,4.578,0,6.868c0.198,0.031,0.396,0.062,0.594,0.094
	c2.689-9.204,5.094-18.504,8.113-27.599c30.474-91.814,89.353-159.151,175.951-201.817c58.186-28.668,120.206-39.287,184.822-35.779
	c63.998,3.474,123.64,21.047,177.447,56.174c74.774,48.814,123.189,116.873,144.006,203.742
	c18.137,75.684,12.685,150.03-18.358,221.628c-34.522,79.623-92.01,137.474-170.649,173.981
	c-59.172,27.469-121.639,36.999-186.494,32.274c-52.913-3.854-103.045-17.583-149.329-43.634
	c-83.272-46.872-137.496-116.667-162.62-208.954c-0.787-2.89-1.616-5.768-2.457-8.643
	C1610.721,723.889,1610.423,723.514,1609.819,722.411z M1955.367,431.856c-9.455,0.783-18.978,1.094-28.354,2.426
	c-63.111,8.964-111.193,40.926-143.171,95.979c-26.071,44.884-33.416,93.724-26.024,144.719
	c7.874,54.321,32.307,99.909,75.616,134.144c45.287,35.799,97.331,47.927,154.117,40.037c50.787-7.057,93.097-30.274,124.325-70.943
	c47.1-61.338,56.696-130.329,35.03-203.411C2121.218,488.158,2045.006,432.342,1955.367,431.856z"/>
<path fill-rule="evenodd" clip-rule="evenodd" d="M779.062,701.674c0.279-3.561,0.799-7.121,0.801-10.683
	c0.044-88.988,0.032-177.978,0.034-266.966c0-29.83-0.056-59.659,0.045-89.488c0.05-14.646,7.689-25.319,20.697-28.929
	c3.147-0.873,6.583-0.969,9.887-0.977c30.329-0.069,60.672,0.495,90.984-0.235c19.304-0.466,31.542,14.21,31.511,31.438
	c-0.287,156.979-0.168,313.96-0.168,470.94c0,46.993,0.014,93.987-0.007,140.981c-0.009,20.196-11.451,31.681-31.554,31.703
	c-23.164,0.027-46.328,0.117-69.491-0.021c-19.726-0.119-35.825-7.889-47.848-23.669c-96.217-126.29-192.415-252.596-288.65-378.871
	c-2.327-3.053-5.033-5.815-7.562-8.714c-0.591,0.218-1.181,0.437-1.772,0.654c-0.313,3.883-0.896,7.766-0.898,11.648
	c-0.052,86.323-0.04,172.646-0.041,258.968c0,36.328-0.443,72.665,0.18,108.982c0.314,18.351-13.313,31.425-31.288,31.156
	c-29.99-0.448-59.991-0.111-89.987-0.132c-20.2-0.014-31.734-11.44-31.735-31.518c-0.015-204.307-0.018-408.613-0.006-612.92
	c0.001-18.639,11.641-30.386,30.147-30.42c27.83-0.051,55.661-0.175,83.489,0.046c18.471,0.146,33.742,7.776,44.865,22.368
	c93.52,122.688,186.87,245.504,280.303,368.258c1.862,2.446,4.109,4.6,6.176,6.89C777.802,702.002,778.432,701.838,779.062,701.674z
	"/>
<path fill-rule="evenodd" clip-rule="evenodd" d="M3085.646,831.77c2.736,0,5.048,0.001,7.359,0
	c120-0.016,240.001,0.359,359.998-0.184c82.508-0.373,151.776-53.224,174.453-132.684c16.268-57.001,11.636-112.354-18.574-164.066
	c-28.092-48.085-70.36-76.84-125.193-86.619c-10.592-1.889-21.514-2.647-32.287-2.677c-68.5-0.185-137.002,0.397-205.497-0.15
	c-32.53-0.26-56.483,13.726-74.588,39.649c-1.506,2.155-2.968,4.342-4.892,7.16c-0.475-1.578-0.954-2.429-0.952-3.277
	c0.052-20.997-0.716-42.041,0.414-62.981c3.159-58.562,48.371-109.126,106.078-119.287c8.812-1.552,17.869-2.376,26.815-2.399
	c55.666-0.146,111.344-0.704,166.995,0.247c130.964,2.24,241.685,79.509,295.135,187.591
	c26.746,54.082,37.569,111.286,33.15,171.522c-9.703,132.283-98.843,248.014-225.997,291.723
	c-36.254,12.462-73.61,18.091-111.921,18.065c-105.333-0.07-210.666-0.072-315.999,0.173c-8.729,0.021-15.924-2.598-22.654-7.552
	c-20.943-15.415-31.109-36.661-31.986-62.14c-0.791-22.974-0.301-45.992-0.352-68.991
	C3085.149,834.088,3085.397,833.282,3085.646,831.77z"/>
<path fill-rule="evenodd" clip-rule="evenodd" d="M2353.826,297.432c53.376,2.165,94.26,25.711,119.19,73.327
	c11.379,21.73,19.166,45.347,28.504,68.14c49.777,121.514,99.408,243.086,149.393,364.515c9.876,23.99,20.43,47.753,31.87,71.031
	c8.983,18.28,21.701,34.203,39.544,44.744c8.029,4.744,17.225,7.712,26.166,10.65c6.131,2.015,7.052,2.812,3.092,8.207
	c-8.506,11.591-19.457,20.548-31.693,27.881c-25.294,15.157-52.692,22.685-82.158,19.647
	c-51.548-5.312-90.455-30.935-110.843-78.614c-59.744-139.719-117.931-280.104-176.733-420.225
	c-22.54-53.712-45.088-107.421-67.644-161.126c-3.029-7.213-2.96-7.006,4.182-10.612
	C2307.796,304.34,2329.823,297.39,2353.826,297.432z"/>
<path fill-rule="evenodd" clip-rule="evenodd" d="M255.993,641.99c0,103.33,0.007,206.659-0.008,309.989
	c-0.002,13.3-5.538,22.148-16.406,25.769c-2.928,0.976-6.209,1.225-9.329,1.232c-34.499,0.082-68.998,0.111-103.497,0.023
	c-15.846-0.04-25.796-10.165-25.794-26.015c0.023-206.493,0.058-412.986,0.101-619.48c0.003-13.711,5.378-22.66,16.311-26.421
	c3.218-1.107,6.856-1.365,10.304-1.375c33.832-0.095,67.668,0.248,101.495-0.176c18.529-0.232,27.225,13.145,27.197,27.465
	c-0.2,102.996-0.107,205.992-0.107,308.988C256.17,641.99,256.082,641.99,255.993,641.99z"/>
<path fill-rule="evenodd" clip-rule="evenodd" d="M3042.848,346.528c-1.153,0.659-1.942,1.26-2.83,1.596
	c-36.644,13.838-61.552,40.155-76.37,75.465c-69.23,164.969-137.903,330.17-206.616,495.355c-2.104,5.056-4.261,6.264-9.577,4.953
	c-19.217-4.738-33.657-16.239-45.86-31.124c-10.877-13.267-18.452-28.461-25.258-44.063c-6.521-14.947-12.99-29.92-19.166-45.011
	c-0.939-2.294-0.992-5.623-0.067-7.913c56.208-139.183,112.27-278.426,169.138-417.338c11.793-28.807,34.03-49.2,62.165-62.345
	c36.65-17.121,73.654-16.742,110.727-0.566c15.307,6.679,29.345,14.955,40.642,27.435
	C3040.759,344.061,3041.695,345.193,3042.848,346.528z"/>
<path fill-rule="evenodd" clip-rule="evenodd" d="M3112.015,973.368c-11.41,0-21.522-0.009-31.635,0.002
	c-19.146,0.021-38.352,0.763-56.964-5.178c-47.588-15.188-78.153-46.881-90.722-95.153c-2.98-11.445-3.926-23.699-3.967-35.587
	c-0.35-100.966-0.288-201.933-0.254-302.899c0.002-3.068,0.531-6.354,1.696-9.172c13.671-33.06,27.079-66.237,41.428-99.003
	c14.258-32.558,37.198-56.829,70.821-70.199c5.135-2.041,7.868-1.159,10.892,3.497c15.003,23.113,22.987,48.288,23.024,75.849
	c0.211,154.448,0.333,308.896,0.541,463.344c0.039,28.894,10.06,53.349,32.788,71.962
	C3110.155,971.232,3110.54,971.766,3112.015,973.368z"/>
<path fill-rule="evenodd" clip-rule="evenodd" d="M3313.427,609.778c-0.001,49.644,0.002,99.287-0.005,148.931
	c-0.001,6.584-0.03,6.425-6.556,6.668c-28.842,1.077-56.147-4.383-80.499-20.388c-39.315-25.84-59.819-62.675-60.794-109.658
	c-0.736-35.468-0.303-70.965-0.01-106.445c0.05-6.028,0.994-12.464,3.275-17.988c11.145-26.994,29.142-47.162,58.398-54.979
	c4.917-1.313,10.205-1.664,15.328-1.707c21.321-0.183,42.646-0.079,63.969-0.077c6.876,0.001,6.89,0.006,6.891,6.714
	C3313.429,510.492,3313.427,560.136,3313.427,609.778z"/>
</svg>
