<?xml version="1.0" encoding="utf-8"?>
<!-- Generator: Adobe Illustrator 16.0.0, SVG Export Plug-In . SVG Version: 6.00 Build 0)  -->
<!DOCTYPE svg PUBLIC "-//W3C//DTD SVG 1.1//EN" "http://www.w3.org/Graphics/SVG/1.1/DTD/svg11.dtd">
<svg version="1.1" id="Layer_1" xmlns="http://www.w3.org/2000/svg" xmlns:xlink="http://www.w3.org/1999/xlink" x="0px" y="0px"
	 width="1920px" height="1080px" viewBox="0 0 1920 1080" enable-background="new 0 0 1920 1080" xml:space="preserve">
<path fill="none" stroke="#000000" stroke-miterlimit="10" d="M977.87,373.47c-7.218,0.91-19.749,1.656-31.918,4.162
	c-74.276,15.291-125.456,74.306-130.032,150.232c-2.576,42.735,9.415,81.335,37.573,113.793
	c39.349,45.358,90.464,62.129,149.009,56.01c92.695-9.688,152.794-87.271,146.766-172.829c-2.328-33.034-12.8-62.927-33.389-88.833
	C1082.022,393.402,1036.679,374.721,977.87,373.47z"/>
<path fill-rule="evenodd" clip-rule="evenodd" fill="none" stroke="#000000" stroke-miterlimit="10" d="M398.034,564.677
	c0.144-2.255,0.412-4.509,0.413-6.763c0.028-54.327,0.025-108.653,0.032-162.979c0.002-12.13,3.547-15.764,15.795-15.831
	c14.164-0.078,28.331-0.096,42.494,0.062c9.814,0.109,13.839,4.341,13.841,14.242c0.017,95.321,0.016,190.644-0.007,285.965
	c-0.002,9.67-3.75,13.832-13.478,14.052c-12.487,0.282-24.991,0.152-37.481-0.104c-8.544-0.177-15.107-4.273-20.275-11.069
	c-44.468-58.481-89.002-116.913-133.521-175.356c-1.483-1.947-3.019-3.854-5.699-5.528c-0.159,2.704-0.455,5.408-0.456,8.112
	c-0.022,55.993-0.008,111.986-0.007,167.979c0,12.263-3.411,15.956-15.562,16.112c-13.829,0.177-27.665,0.179-41.494-0.025
	c-11.613-0.172-15.018-3.889-15.018-15.561c-0.001-94.32-0.001-188.642-0.001-282.962c0-12.294,3.407-15.833,15.65-15.911
	c12.664-0.081,25.33-0.018,37.995,0.014c9.48,0.023,16.875,3.912,22.65,11.521c42.905,56.527,85.905,112.983,128.88,169.459
	c1.288,1.692,2.628,3.346,3.944,5.017C397.163,564.974,397.599,564.825,398.034,564.677z"/>
<path fill-rule="evenodd" clip-rule="evenodd" fill="none" stroke="#000000" stroke-miterlimit="10" d="M717.09,565.901
	c0.245-2.745,0.702-5.49,0.704-8.236c0.042-54.496,0.028-108.992,0.031-163.488c0.001-11.119,3.918-15.081,14.958-15.096
	c13.499-0.018,26.999-0.052,40.497,0.011c9.783,0.045,13.957,4.263,13.958,14.076c0.015,95.493,0.015,190.986,0.001,286.479
	c-0.001,9.516-4.095,13.79-13.622,13.924c-10.997,0.153-22,0.149-32.997-0.004c-9.24-0.128-16.521-4.061-22.18-11.506
	c-44.856-59.025-89.798-117.985-134.739-176.947c-1.453-1.906-3.179-3.605-4.777-5.401c-0.523,0.124-1.046,0.248-1.569,0.371
	c-0.346,2.819-0.992,5.639-0.995,8.458c-0.061,55.662-0.047,111.325-0.05,166.987c0,2,0.041,4.002-0.031,6
	c-0.25,6.938-4.035,11.633-10.986,11.799c-15.818,0.38-31.659,0.412-47.475-0.012c-7.229-0.193-10.89-5.153-10.894-12.898
	c-0.022-42.997-0.01-85.994-0.01-128.99c0-52.663-0.003-105.326,0.003-157.989c0.001-10.146,4.073-14.301,14.185-14.345
	c12.166-0.054,24.332,0.002,36.498-0.015c9.462-0.013,16.977,3.63,22.772,11.26c43.332,57.045,86.738,114.032,130.15,171.017
	c1.429,1.876,3.171,3.514,4.767,5.263C715.89,566.379,716.49,566.141,717.09,565.901z"/>
<path fill-rule="evenodd" clip-rule="evenodd" fill="none" stroke="#000000" stroke-miterlimit="10" d="M1515.124,630.046
	c2.053,0,4.039,0,6.026,0c53.993,0,107.998-0.695,161.977,0.187c58.67,0.959,97.438-48.279,90.065-104.174
	c-4.6-34.867-22.835-60.074-56.209-72.62c-9.001-3.384-19.13-5.005-28.783-5.189c-32.151-0.616-64.324,0.062-96.482-0.312
	c-15.95-0.186-27.955,6.078-36.847,18.996c-0.529,0.769-1.164,1.464-2.579,3.227c0.131-20.204-2.522-39.459,7.844-57.021
	c11.657-19.75,28.93-30.884,51.834-31.35c28.98-0.591,58.013-0.776,86.974,0.242c71.288,2.509,133.86,56.896,147.113,126.941
	c17.104,90.395-45.317,175.649-136.841,186.722c-7.421,0.897-14.961,1.112-22.446,1.129c-47.994,0.107-95.989-0.051-143.981,0.21
	c-7.156,0.038-12.53-2.532-17.318-7.258c-5.642-5.566-9.729-12.349-10.153-20.13
	C1514.611,656.722,1515.124,643.732,1515.124,630.046z"/>
<path fill-rule="evenodd" clip-rule="evenodd" fill="none" stroke="#000000" stroke-miterlimit="10" d="M1357.374,678.21
	c-10.614,13.117-23.684,20.195-39.174,22.585c-28.448,4.391-55.419-11.052-66.54-37.57
	c-37.656-89.787-75.338-179.564-113.005-269.347c-0.632-1.508-1.198-3.042-1.769-4.494c22.032-14.547,56.14-13.931,78.042,10.048
	c5.05,5.528,9.295,12.303,12.169,19.227c29.801,71.783,59.242,143.717,88.798,215.602c1.266,3.078,2.634,6.117,4.041,9.133
	C1327.57,659.763,1337.548,673.693,1357.374,678.21z"/>
<path fill-rule="evenodd" clip-rule="evenodd" fill="none" stroke="#000000" stroke-miterlimit="10" d="M78.34,401.05
	c22.594,0,44.587-0.002,66.58,0.012c0.637,0.001,1.273,0.179,2.537,0.368c0,1.856,0,3.629,0,5.402
	c-0.031,91.331-0.058,182.662-0.1,273.992c-0.004,9.632-2.899,12.512-12.505,12.524c-15,0.021-29.999,0.036-44.999-0.005
	c-8.493-0.023-11.757-3.323-11.757-11.845c0-91.831,0.013-183.662,0.033-275.493C78.129,404.543,78.25,403.08,78.34,401.05z"/>
<path fill-rule="evenodd" clip-rule="evenodd" fill="none" stroke="#000000" stroke-miterlimit="10" d="M1494.333,401.654
	c-21.263,7.982-32.536,24.378-40.745,44.305c-30.69,74.495-61.929,148.766-92.796,223.188c-1.847,4.453-3.947,5.179-8.154,3.637
	c-8.633-3.164-16.017-8.37-20.341-16.188c-7.229-13.063-13.315-26.764-19.636-40.312c-0.601-1.288,0.276-3.503,0.924-5.103
	c24.695-61.118,49.5-122.193,74.133-183.336c4.195-10.413,8.56-20.527,16.743-28.628c18.091-17.905,45.116-23.069,68.393-12.843
	C1480.962,389.938,1488.71,393.96,1494.333,401.654z"/>
<path fill-rule="evenodd" clip-rule="evenodd" fill="none" stroke="#000000" stroke-miterlimit="10" d="M1527.293,696.693
	c-21.204,0.312-41.133,2.138-58.697-10.068c-17.612-12.238-27.523-29-27.707-50.454c-0.415-48.47-0.217-96.944-0.187-145.417
	c0.001-2.094,0.498-4.315,1.296-6.259c6.192-15.086,12.366-30.183,18.842-45.147c6.465-14.938,16.898-26.11,31.987-32.803
	c3.709-1.645,5.612-0.791,7.577,2.521c6.347,10.695,9.825,22.082,9.833,34.6c0.048,71.127,0.302,142.253,0.211,213.379
	C1510.429,672.285,1513.773,685.746,1527.293,696.693z"/>
<path fill-rule="evenodd" clip-rule="evenodd" fill="none" stroke="#000000" stroke-miterlimit="10" d="M1621.774,452.221
	c0,49.006,0,97.429,0,146.26c-10.753,1.119-20.989-0.229-30.866-4.193c-23.18-9.301-38.545-31.845-38.697-56.868
	c-0.098-16.162-0.045-32.326-0.012-48.489c0.037-17.36,16.249-35.503,33.541-36.57
	C1597.507,451.634,1609.354,452.221,1621.774,452.221z"/>
<path fill-rule="evenodd" clip-rule="evenodd" fill="none" stroke="#000000" stroke-miterlimit="10" d="M1077.53,532.375
	c-1.281,41.176-14.808,71.531-47.554,90.316c-51.93,29.791-125.499,5.679-139.782-65.496c-6.611-32.942-0.158-63.627,22.676-89.09
	c24.58-27.409,56.211-35.651,91.369-27.697c35.514,8.034,57.94,31.399,68.501,65.867
	C1075.728,516.026,1076.488,526.46,1077.53,532.375z"/>
</svg>
