<?xml version="1.0" encoding="utf-8"?>
<!-- Generator: Adobe Illustrator 16.0.0, SVG Export Plug-In . SVG Version: 6.00 Build 0)  -->
<!DOCTYPE svg PUBLIC "-//W3C//DTD SVG 1.1//EN" "http://www.w3.org/Graphics/SVG/1.1/DTD/svg11.dtd">
<svg version="1.1" id="Layer_1" xmlns="http://www.w3.org/2000/svg" xmlns:xlink="http://www.w3.org/1999/xlink" x="0px" y="0px"
	 width="1920px" height="1080px" viewBox="0 0 1920 1080" enable-background="new 0 0 1920 1080" xml:space="preserve">
<path fill="none" stroke="#000000" stroke-miterlimit="10" d="M969.017,370.135c-7.291,0.919-19.95,1.673-32.243,4.205
	C861.743,389.786,810.042,449.4,805.42,526.099c-2.603,43.17,9.51,82.162,37.955,114.95c39.749,45.819,91.384,62.76,150.524,56.579
	c93.638-9.787,154.348-88.159,148.258-174.586c-2.352-33.37-12.93-63.566-33.729-89.736
	C1074.228,390.27,1028.423,371.398,969.017,370.135z"/>
<path fill-rule="evenodd" clip-rule="evenodd" fill="none" stroke="#000000" stroke-miterlimit="10" d="M405.286,551.285
	c0.145-2.277,0.416-4.555,0.417-6.831c0.028-54.879,0.025-109.758,0.032-164.636c0.002-12.253,3.583-15.924,15.956-15.992
	c14.308-0.079,28.618-0.097,42.925,0.063c9.914,0.11,13.98,4.385,13.982,14.387c0.017,96.29,0.017,192.581-0.007,288.871
	c-0.002,9.769-3.789,13.973-13.614,14.195c-12.614,0.284-25.245,0.153-37.862-0.106c-8.631-0.178-15.261-4.316-20.481-11.182
	c-44.92-59.075-89.907-118.102-134.878-177.139c-1.499-1.967-3.05-3.894-5.757-5.584c-0.16,2.731-0.459,5.463-0.461,8.195
	c-0.022,56.562-0.008,113.125-0.007,169.687c0,12.388-3.445,16.118-15.721,16.276c-13.97,0.179-27.946,0.181-41.915-0.025
	c-11.731-0.174-15.171-3.929-15.171-15.719c-0.001-95.279-0.001-190.56-0.001-285.838c0-12.419,3.442-15.994,15.809-16.073
	c12.792-0.082,25.587-0.018,38.381,0.014c9.577,0.023,17.046,3.952,22.88,11.639c43.341,57.102,86.778,114.132,130.19,171.182
	c1.301,1.709,2.655,3.38,3.984,5.067C404.406,551.586,404.846,551.436,405.286,551.285z"/>
<path fill-rule="evenodd" clip-rule="evenodd" fill="none" stroke="#000000" stroke-miterlimit="10" d="M705.585,552.522
	c0.248-2.772,0.709-5.546,0.711-8.319c0.042-55.051,0.029-110.101,0.032-165.15c0.001-11.232,3.958-15.234,15.109-15.25
	c13.636-0.018,27.273-0.052,40.909,0.011c9.883,0.045,14.099,4.306,14.101,14.219c0.015,96.464,0.015,192.928,0.001,289.392
	c-0.001,9.612-4.137,13.931-13.76,14.065c-11.109,0.155-22.223,0.151-33.332-0.004c-9.334-0.129-16.689-4.102-22.405-11.623
	c-45.312-59.625-90.711-119.185-136.109-178.746c-1.468-1.926-3.211-3.642-4.826-5.457c-0.528,0.125-1.057,0.251-1.584,0.375
	c-0.35,2.848-1.002,5.696-1.005,8.544c-0.062,56.229-0.048,112.457-0.051,168.685c0,2.021,0.042,4.043-0.031,6.062
	c-0.252,7.009-4.076,11.751-11.098,11.919c-15.979,0.384-31.981,0.416-47.957-0.013c-7.302-0.195-11-5.205-11.004-13.029
	c-0.022-43.434-0.01-86.868-0.01-130.301c0-53.199-0.003-106.397,0.003-159.596c0.001-10.25,4.114-14.446,14.329-14.49
	c12.289-0.055,24.579,0.002,36.868-0.015c9.558-0.013,17.149,3.667,23.003,11.375c43.773,57.625,87.62,115.191,131.474,172.755
	c1.444,1.895,3.203,3.55,4.815,5.316C704.373,553.005,704.979,552.765,705.585,552.522z"/>
<path fill-rule="evenodd" clip-rule="evenodd" fill="none" stroke="#000000" stroke-miterlimit="10" d="M1511.731,629.319
	c2.073,0,4.08,0,6.088,0c54.542,0,109.096-0.702,163.623,0.188c59.266,0.969,98.429-48.771,90.98-105.233
	c-4.646-35.222-23.067-60.685-56.78-73.358c-9.093-3.418-19.324-5.056-29.076-5.242c-32.478-0.623-64.978,0.062-97.463-0.316
	c-16.112-0.187-28.239,6.14-37.221,19.189c-0.535,0.776-1.176,1.479-2.605,3.259c0.132-20.41-2.548-39.86,7.924-57.601
	c11.775-19.951,29.224-31.198,52.36-31.668c29.275-0.597,58.603-0.785,87.857,0.244c72.013,2.535,135.222,57.474,148.609,128.232
	c17.277,91.314-45.778,177.435-138.232,188.62c-7.496,0.907-15.112,1.124-22.674,1.141c-48.482,0.108-96.966-0.052-145.445,0.212
	c-7.229,0.039-12.657-2.558-17.494-7.331c-5.699-5.623-9.829-12.475-10.257-20.335
	C1511.214,656.267,1511.731,643.145,1511.731,629.319z"/>
<path fill-rule="evenodd" clip-rule="evenodd" fill="none" stroke="#000000" stroke-miterlimit="10" d="M1352.378,677.973
	c-10.722,13.251-23.925,20.4-39.572,22.814c-28.737,4.436-55.982-11.164-67.216-37.952
	c-38.039-90.699-76.104-181.39-114.154-272.084c-0.638-1.523-1.21-3.073-1.786-4.54c22.256-14.695,56.71-14.072,78.835,10.15
	c5.102,5.584,9.39,12.428,12.293,19.422c30.104,72.513,59.844,145.178,89.7,217.793c1.278,3.109,2.661,6.179,4.082,9.226
	C1322.271,659.338,1332.351,673.41,1352.378,677.973z"/>
<path fill-rule="evenodd" clip-rule="evenodd" fill="none" stroke="#000000" stroke-miterlimit="10" d="M64.475,338
	c33.813,0,66.728-0.002,99.641,0.016c0.953,0.001,1.905,0.23,3.797,0.475c0,2.396,0,4.686,0,6.975
	c-0.047,117.913-0.086,235.827-0.149,353.738c-0.007,12.436-4.338,16.154-18.715,16.171c-22.449,0.026-44.896,0.046-67.344-0.007
	c-12.71-0.031-17.595-4.291-17.595-15.293c0-118.558,0.02-237.116,0.049-355.675C64.158,342.51,64.34,340.622,64.475,338z"/>
<path fill-rule="evenodd" clip-rule="evenodd" fill="none" stroke="#000000" stroke-miterlimit="10" d="M1490.729,398.606
	c-21.479,8.063-32.866,24.625-41.159,44.755c-31.002,75.252-62.558,150.277-93.739,225.457c-1.865,4.498-3.987,5.231-8.236,3.674
	c-8.721-3.196-16.18-8.455-20.548-16.353c-7.302-13.196-13.451-27.035-19.835-40.721c-0.607-1.302,0.278-3.539,0.933-5.154
	c24.946-61.74,50.003-123.436,74.887-185.2c4.237-10.519,8.646-20.736,16.913-28.919c18.274-18.087,45.575-23.304,69.088-12.973
	C1477.222,386.771,1485.049,390.833,1490.729,398.606z"/>
<path fill-rule="evenodd" clip-rule="evenodd" fill="none" stroke="#000000" stroke-miterlimit="10" d="M1524.024,696.645
	c-21.42,0.314-41.552,2.159-59.294-10.171c-17.792-12.363-27.804-29.295-27.989-50.967c-0.419-48.963-0.219-97.93-0.188-146.896
	c0.001-2.115,0.504-4.359,1.31-6.322c6.255-15.239,12.491-30.49,19.033-45.606c6.53-15.089,17.07-26.376,32.312-33.136
	c3.747-1.661,5.669-0.799,7.654,2.546c6.411,10.804,9.925,22.306,9.933,34.951c0.049,71.85,0.305,143.699,0.213,215.548
	C1506.988,671.988,1510.367,685.586,1524.024,696.645z"/>
<path fill-rule="evenodd" clip-rule="evenodd" fill="none" stroke="#000000" stroke-miterlimit="10" d="M1619.466,449.687
	c0,49.504,0,98.419,0,147.746c-10.862,1.131-21.202-0.231-31.18-4.235c-23.415-9.396-38.937-32.169-39.091-57.446
	c-0.099-16.327-0.045-32.655-0.012-48.982c0.037-17.537,16.414-35.864,33.882-36.942
	C1594.951,449.094,1606.919,449.687,1619.466,449.687z"/>
<path fill-rule="evenodd" clip-rule="evenodd" fill="none" stroke="#000000" stroke-miterlimit="10" d="M1069.689,530.655
	c-1.294,41.595-14.958,72.259-48.037,91.234c-52.457,30.094-126.774,5.736-141.203-66.161c-6.678-33.278-0.159-64.274,22.907-89.996
	c24.83-27.688,56.783-36.014,92.297-27.979c35.875,8.116,58.529,31.719,69.197,66.537
	C1067.868,514.141,1068.637,524.68,1069.689,530.655z"/>
</svg>
