<?xml version="1.0" encoding="utf-8"?>
<!-- Generator: Adobe Illustrator 16.0.0, SVG Export Plug-In . SVG Version: 6.00 Build 0)  -->
<!DOCTYPE svg PUBLIC "-//W3C//DTD SVG 1.1//EN" "http://www.w3.org/Graphics/SVG/1.1/DTD/svg11.dtd">
<svg version="1.1" id="Layer_1" xmlns="http://www.w3.org/2000/svg" xmlns:xlink="http://www.w3.org/1999/xlink" x="0px" y="0px"
	 width="3840px" height="1080px" viewBox="0 0 3840 1080" enable-background="new 0 0 3840 1080" xml:space="preserve">
<g id="Layer_1_1_" display="none">
	<path display="inline" fill="none" stroke="#D02027" stroke-miterlimit="10" d="M1609.818,722.411c0,7.751,0,14.722,0,21.692
		c0.002,67.666,0.011,135.33,0,202.995c-0.002,21.167-11.235,32.373-32.412,32.377c-22.999,0.006-46,0.125-68.998-0.051
		c-19.335-0.147-35.307-7.694-47.091-23.146c-74.265-97.375-148.447-194.812-222.66-292.225
		c-22.818-29.952-45.632-59.907-68.501-89.821c-1.643-2.147-3.725-3.958-5.602-5.927c-0.521,0.163-1.044,0.326-1.565,0.488
		c-0.337,3.54-0.956,7.079-0.966,10.62c-0.078,30.166-0.047,60.332-0.045,90.498c0.002,92.331-0.306,184.664,0.244,276.992
		c0.124,20.793-14.029,33.162-32.826,32.749c-29.818-0.654-59.661-0.159-89.494-0.167c-18.727-0.006-30.761-11.854-30.764-30.525
		c-0.026-204.663-0.025-409.325-0.007-613.987c0.001-18.604,11.726-30.347,30.211-30.374c27.833-0.04,55.667-0.182,83.498,0.045
		c18.271,0.147,33.491,7.604,44.509,22.051c93.546,122.688,186.905,245.519,280.354,368.279c1.958,2.572,4.313,4.839,6.485,7.248
		c0.554-0.131,1.105-0.262,1.66-0.394c0.336-3.146,0.959-6.29,0.964-9.438c0.062-44.166,0.042-88.331,0.043-132.497
		c0-74.665,0.05-149.329-0.053-223.994c-0.015-10.896,3.232-19.962,12.348-26.396c5.062-3.574,10.761-4.962,16.964-4.947
		c31.333,0.074,62.666-0.014,93.998,0.05c17.855,0.036,29.688,11.94,29.695,29.875c0.033,73.831,0.012,147.662,0.01,221.494
		c0,2.289,0,4.578,0,6.868c0.197,0.031,0.396,0.062,0.594,0.094c2.689-9.203,5.094-18.504,8.113-27.599
		c30.474-91.813,89.354-159.151,175.951-201.817c58.186-28.667,120.206-39.287,184.822-35.778
		c63.998,3.474,123.64,21.047,177.446,56.174c74.774,48.813,123.189,116.873,144.007,203.742
		c18.137,75.684,12.685,150.029-18.358,221.628c-34.522,79.623-92.01,137.474-170.649,173.98
		c-59.172,27.47-121.639,36.999-186.494,32.274c-52.912-3.854-103.045-17.583-149.328-43.634
		c-83.272-46.872-137.496-116.667-162.62-208.954c-0.787-2.891-1.616-5.769-2.457-8.644
		C1610.721,723.889,1610.423,723.514,1609.818,722.411z M1955.367,431.856c-9.455,0.782-18.979,1.094-28.354,2.426
		c-63.11,8.964-111.192,40.926-143.171,95.979c-26.07,44.884-33.416,93.725-26.023,144.72c7.873,54.32,32.307,99.908,75.615,134.144
		c45.287,35.799,97.331,47.927,154.117,40.037c50.787-7.058,93.097-30.274,124.325-70.943c47.1-61.338,56.696-130.329,35.03-203.411
		C2121.218,488.158,2045.006,432.342,1955.367,431.856z"/>
	<path display="inline" fill="none" stroke="#D02027" stroke-miterlimit="10" d="M779.062,701.674
		c0.278-3.561,0.799-7.121,0.801-10.683c0.044-88.988,0.031-177.979,0.033-266.966c0-29.83-0.056-59.659,0.046-89.488
		c0.05-14.646,7.688-25.319,20.696-28.929c3.147-0.873,6.583-0.969,9.888-0.977c30.329-0.069,60.672,0.495,90.983-0.235
		c19.305-0.466,31.542,14.21,31.512,31.438c-0.287,156.979-0.168,313.96-0.168,470.94c0,46.992,0.014,93.986-0.008,140.98
		c-0.009,20.196-11.451,31.681-31.554,31.703c-23.164,0.027-46.328,0.117-69.491-0.021c-19.726-0.119-35.824-7.89-47.848-23.67
		c-96.217-126.289-192.415-252.596-288.65-378.87c-2.326-3.054-5.033-5.815-7.562-8.714c-0.591,0.218-1.181,0.437-1.772,0.653
		c-0.312,3.883-0.896,7.767-0.897,11.648c-0.052,86.323-0.04,172.646-0.041,258.968c0,36.328-0.443,72.665,0.18,108.982
		c0.313,18.351-13.313,31.425-31.288,31.155c-29.99-0.447-59.991-0.11-89.987-0.132c-20.2-0.014-31.734-11.439-31.735-31.518
		c-0.015-204.308-0.018-408.613-0.006-612.92c0.001-18.64,11.641-30.386,30.147-30.42c27.83-0.051,55.661-0.175,83.489,0.046
		c18.471,0.146,33.742,7.776,44.865,22.369c93.52,122.688,186.869,245.504,280.303,368.258c1.862,2.445,4.109,4.6,6.176,6.89
		C777.802,702.002,778.432,701.838,779.062,701.674z"/>
	<path display="inline" fill="none" stroke="#D02027" stroke-miterlimit="10" d="M3085.646,831.77c2.735,0,5.048,0.002,7.358,0
		c120-0.016,240.001,0.359,359.998-0.184c82.508-0.373,151.776-53.224,174.453-132.684c16.269-57.001,11.636-112.354-18.574-164.066
		c-28.092-48.085-70.36-76.84-125.192-86.619c-10.593-1.889-21.515-2.646-32.287-2.677c-68.5-0.185-137.002,0.396-205.498-0.15
		c-32.529-0.26-56.482,13.727-74.588,39.649c-1.506,2.155-2.968,4.342-4.892,7.16c-0.476-1.578-0.954-2.43-0.952-3.277
		c0.053-20.997-0.716-42.041,0.414-62.98c3.159-58.562,48.371-109.127,106.078-119.287c8.812-1.552,17.869-2.376,26.814-2.399
		c55.666-0.146,111.345-0.704,166.996,0.247c130.964,2.24,241.685,79.509,295.135,187.591
		c26.746,54.082,37.568,111.286,33.149,171.522c-9.702,132.283-98.843,248.014-225.997,291.723
		c-36.254,12.462-73.609,18.091-111.921,18.065c-105.333-0.07-210.666-0.072-315.999,0.173c-8.729,0.021-15.924-2.599-22.654-7.552
		c-20.942-15.415-31.108-36.661-31.985-62.141c-0.791-22.974-0.302-45.992-0.353-68.991
		C3085.148,834.088,3085.396,833.282,3085.646,831.77z"/>
	<path display="inline" fill="none" stroke="#D02027" stroke-miterlimit="10" d="M2353.826,297.432
		c53.376,2.165,94.26,25.71,119.189,73.327c11.379,21.73,19.166,45.348,28.504,68.141
		c49.777,121.514,99.408,243.086,149.394,364.515c9.876,23.99,20.43,47.753,31.87,71.031c8.982,18.279,21.701,34.203,39.544,44.744
		c8.028,4.743,17.225,7.712,26.166,10.649c6.131,2.016,7.052,2.812,3.092,8.207c-8.506,11.591-19.457,20.548-31.693,27.881
		c-25.294,15.157-52.691,22.686-82.157,19.647c-51.549-5.312-90.455-30.936-110.844-78.614
		c-59.744-139.719-117.931-280.104-176.732-420.225c-22.54-53.712-45.088-107.421-67.645-161.126
		c-3.029-7.214-2.96-7.007,4.182-10.612C2307.796,304.34,2329.823,297.39,2353.826,297.432z"/>
	<path display="inline" fill="none" stroke="#D02027" stroke-miterlimit="10" d="M255.993,641.99
		c0,103.33,0.007,206.659-0.008,309.988c-0.002,13.301-5.538,22.148-16.406,25.77c-2.928,0.976-6.209,1.225-9.329,1.232
		c-34.499,0.081-68.998,0.11-103.497,0.022c-15.846-0.04-25.796-10.165-25.794-26.015c0.023-206.493,0.058-412.986,0.101-619.48
		c0.003-13.711,5.378-22.66,16.311-26.421c3.218-1.107,6.856-1.365,10.304-1.375c33.832-0.095,67.668,0.248,101.495-0.176
		c18.529-0.232,27.225,13.145,27.197,27.465c-0.2,102.996-0.107,205.992-0.107,308.988C256.17,641.99,256.082,641.99,255.993,641.99
		z"/>
	<path display="inline" fill="none" stroke="#D02027" stroke-miterlimit="10" d="M3042.848,346.528
		c-1.152,0.659-1.941,1.26-2.83,1.596c-36.644,13.838-61.552,40.155-76.37,75.465c-69.229,164.969-137.903,330.17-206.616,495.355
		c-2.104,5.056-4.261,6.264-9.576,4.953c-19.217-4.738-33.657-16.239-45.86-31.124c-10.877-13.268-18.452-28.461-25.258-44.063
		c-6.521-14.947-12.99-29.92-19.166-45.011c-0.939-2.294-0.992-5.623-0.067-7.913c56.208-139.183,112.271-278.426,169.139-417.338
		c11.793-28.808,34.029-49.2,62.164-62.345c36.65-17.122,73.654-16.743,110.728-0.566c15.307,6.679,29.345,14.955,40.642,27.435
		C3040.759,344.061,3041.695,345.193,3042.848,346.528z"/>
	<path display="inline" fill="none" stroke="#D02027" stroke-miterlimit="10" d="M3112.015,973.368
		c-11.409,0-21.521-0.009-31.635,0.002c-19.146,0.021-38.353,0.763-56.964-5.178c-47.588-15.188-78.153-46.882-90.723-95.153
		c-2.979-11.445-3.926-23.699-3.967-35.587c-0.35-100.966-0.288-201.933-0.254-302.899c0.002-3.067,0.531-6.354,1.696-9.172
		c13.671-33.06,27.079-66.236,41.428-99.003c14.259-32.558,37.198-56.829,70.821-70.199c5.135-2.041,7.868-1.158,10.893,3.497
		c15.002,23.113,22.986,48.288,23.023,75.85c0.211,154.447,0.333,308.896,0.541,463.344c0.039,28.894,10.061,53.349,32.788,71.962
		C3110.155,971.232,3110.54,971.766,3112.015,973.368z"/>
	<path display="inline" fill="none" stroke="#D02027" stroke-miterlimit="10" d="M3313.427,609.778
		c-0.001,49.644,0.002,99.287-0.005,148.931c-0.001,6.584-0.029,6.425-6.556,6.668c-28.842,1.077-56.147-4.383-80.499-20.388
		c-39.314-25.84-59.819-62.675-60.794-109.658c-0.736-35.468-0.303-70.965-0.01-106.445c0.05-6.027,0.993-12.464,3.274-17.987
		c11.146-26.994,29.143-47.162,58.398-54.979c4.917-1.312,10.205-1.664,15.328-1.707c21.32-0.183,42.646-0.079,63.969-0.077
		c6.876,0.001,6.89,0.006,6.891,6.714C3313.429,510.492,3313.427,560.136,3313.427,609.778z"/>
</g>
<g id="Layer_2">
	<path fill="none" stroke="#000000" stroke-miterlimit="10" d="M958.323,264.42c27.833-0.04,166.981-1.88,194.812-1.654
		c18.271,0.147,33.491,7.604,44.509,22.051c93.546,122.688,121.397,180.604,214.848,303.366c1.958,2.572,4.313,4.839,6.484,7.248
		c0.555-0.131,1.106-0.262,1.66-0.394c0.336-3.146,0.959-6.29,0.965-9.438c0.062-44.166,0.041-88.331,0.043-132.497
		c0-74.665,1.755-88.975,1.652-163.64c-0.015-10.895,3.232-19.962,12.348-26.396c5.062-3.574,10.761-4.962,16.964-4.947
		c31.333,0.074,122.003,0.671,153.335,0.735c17.854,0.036,29.688,11.94,29.695,29.874c0.032,73.832-5.992,73.439-5.994,147.271
		c0,2.289,0,4.578,0,6.868c0.197,0.031,0.396,0.062,0.594,0.094c2.688-9.204,5.094-18.504,8.113-27.599
		c55.66-82.67,50.693-76.267,137.293-118.933c58.186-28.668,139.384-41.102,204-37.594c63.998,3.474,138.191,24.036,192,59.163
		c74.773,48.813,133.83,135.131,154.646,222c18.137,75.684,15.854,190.402-15.189,262
		c-34.522,79.623-80.817,135.067-159.457,171.575c-59.173,27.469-151.146,53.148-216,48.425
		c-52.914-3.854-111.717-10.711-158-36.762c-83.272-46.872-73.028-30.28-127.543-104.597c-1.771-2.415-1.616-5.768-2.457-8.643
		c-0.125-0.425-0.422-0.8-1.025-1.902c0,7.751,0,14.723,0,21.692c0.001,67.666-0.965-11.455-0.975,56.21
		c-0.004,21.167,10.244,64.353-10.933,64.356c-22.999,0.005-126.979-2.331-149.978-2.508c-19.334-0.147-35.306-7.694-47.09-23.146
		c-74.265-97.375-79.787-111.289-154-208.702c-22.818-29.952-55.965-77.883-78.834-107.797c-1.642-2.147-3.724-3.958-5.601-5.926
		c-0.521,0.163-1.044,0.325-1.565,0.487c-0.338,3.54-0.957,7.079-0.967,10.62c-0.078,30.166,0.965,58.956,0.967,89.122
		c0.002,92.331,1.449,122.762,2,215.09c0.123,20.793-14.03,33.162-32.827,32.749c-29.818-0.653-178.661-4.338-208.494-4.346
		 M1955.146,484.661c-7.139,0.579-14.345,0.815-21.404,1.799c-47.624,6.669-83.918,30.435-108.044,71.383
		c-19.685,33.327-25.214,69.66-19.651,107.625c5.942,40.345,24.391,74.269,57.084,99.688c34.18,26.643,73.438,35.639,116.287,29.804
		c38.338-5.245,70.229-22.521,93.829-52.737c35.547-45.65,42.795-96.91,26.44-151.287
		C2080.298,526.518,2022.783,485.027,1955.146,484.661z"/>
	<path fill="none" stroke="#000000" stroke-miterlimit="10" d="M272.915,276.339c27.83-0.051,178.036-2.768,205.864-2.547
		c18.471,0.146,33.742,7.776,44.865,22.368c93.52,122.688,114.566,151.086,208,273.84c1.861,2.446,4.108,4.6,6.176,6.89
		c0.63-0.164,1.26-0.327,1.889-0.491c0.279-3.562,0.799-7.121,0.801-10.684c0.044-88.988-0.867-75.797-0.865-164.785
		c0-29.83,1.074-82.355,1.176-112.186c0.05-14.646,7.688-25.319,20.697-28.929c3.146-0.873,6.582-0.969,9.887-0.977
		c30.329-0.069,140.426,2.517,170.738,1.786c19.304-0.466,31.541,14.21,31.511,31.438c-0.287,156.979-0.009,362.956-0.009,519.937
		c0,46.993,0.021,120.604,0,167.598c-0.01,20.196-11.451,31.682-31.555,31.703c-23.164,0.027-125.436-2.255-148.598-2.394
		c-19.727-0.119-35.825-7.889-47.848-23.669c-96.218-126.29-122.202-172.249-218.438-298.524c-2.327-3.053-5.033-5.814-7.562-8.714
		c-0.592,0.218-1.182,0.438-1.772,0.654c-0.313,3.883-0.896,7.766-0.897,11.647c-0.053,86.323-0.041,172.646-0.041,258.969
		c0,36.327-5.912-14.467-5.289,21.852c0.313,18.351-13.313,31.425-31.288,31.156c-29.99-0.448-180.307,4.315-210.302,4.296"/>
	<path fill="none" stroke="#000000" stroke-miterlimit="10" d="M293.553,640.562c0,112.641,0.01,225.28-0.013,337.921
		c-0.003,14.498-7.927,24.145-23.487,28.091c-4.192,1.062-8.889,1.335-13.354,1.343c-49.389,0.09-98.78,0.122-148.169,0.026
		c-22.685-0.044-36.93-11.082-36.928-28.358c0.033-225.1,0.083-450.198,0.144-675.298c0.004-14.946,7.7-24.702,23.351-28.801
		c4.607-1.207,9.816-1.488,14.751-1.499c48.435-0.103,96.876,0.271,145.303-0.191c26.526-0.253,38.977,14.329,38.937,29.939
		c-0.286,112.275-0.153,224.553-0.153,336.829C293.807,640.562,293.68,640.562,293.553,640.562z"/>
	<path fill="none" stroke="#000000" stroke-miterlimit="10" d="M2419.645,273.792c24.804-1.012,52.312,23.307,52.312,23.307
		l184.479,400.323c0,0,103.209-315.709,133.209-342.277c30-26.567,45.998-97.023,163.998-96.306c74.947,0.456,102,38.261,102,38.261
		c42,32.902,56.371,68.902,56.371,68.902v424h371.629c0,0,14-4,66-38s44-111.833,44-111.833s2-50.167-30-100.167s-72-50-72-50
		l-144-6l-2,306l-126-10l-54.477-48l-37.523-78l-6-250c0,0,2-16,20-48.856c18-32.855,38-57.144,62-73.144s94-32,94-32
		s178-8,234,8.12s102-6.12,198,97.023c96,103.145,92,176.856,90,330.856s-56,192-104,238.388c-48,46.389-174,83.613-174,83.613
		s-488,23.999-542,0s-40-32.001-71.196-66.001c-31.197-34-24.804-72-24.804-72V642.296c0,0-94,315.704-149.67,355.704
		c-55.672,40-104.33,34-120.33,34s-62-20-90-20.699s-54-37.891-54-37.891l-252.8-656.332c8-29.163,21.229-41.232,32.8-43.287
		C2344.402,260.514,2367.66,275.913,2419.645,273.792z"/>
</g>
<g id="Layer_3" display="none">
	
		<rect x="71.601" y="248.017" display="inline" fill="none" stroke="#EA3A00" stroke-miterlimit="10" width="3748.737" height="759.984"/>
</g>
</svg>
