<?xml version="1.0" encoding="utf-8"?>
<!-- Generator: Adobe Illustrator 16.0.0, SVG Export Plug-In . SVG Version: 6.00 Build 0)  -->
<!DOCTYPE svg PUBLIC "-//W3C//DTD SVG 1.1//EN" "http://www.w3.org/Graphics/SVG/1.1/DTD/svg11.dtd">
<svg version="1.1" id="Layer_1" xmlns="http://www.w3.org/2000/svg" xmlns:xlink="http://www.w3.org/1999/xlink" x="0px" y="0px"
	 width="1920px" height="1080px" viewBox="0 0 1920 1080" enable-background="new 0 0 1920 1080" xml:space="preserve">
<path fill="none" stroke="#000000" stroke-miterlimit="10" d="M969.018,370.135c-7.291,0.919-19.95,1.673-32.243,4.205
	C861.743,389.786,810.042,449.4,805.42,526.099c-2.604,43.17,9.51,82.162,37.955,114.95c39.749,45.819,91.384,62.76,150.523,56.579
	c93.639-9.787,154.349-88.159,148.259-174.586c-2.353-33.37-12.931-63.566-33.729-89.736
	C1074.229,390.27,1028.423,371.398,969.018,370.135z"/>
<path fill="none" stroke="#000000" stroke-miterlimit="10" d="M405.286,551.285c0.145-2.277,0.416-4.555,0.417-6.831
	c0.028-54.879,0.025-109.758,0.032-164.636c0.002-12.253,3.583-15.925,15.956-15.992c14.308-0.079,28.617-0.098,42.925,0.062
	c9.914,0.11,13.979,4.386,13.981,14.388c0.018,96.29,0.018,192.581-0.007,288.87c-0.002,9.77-3.789,13.974-13.614,14.195
	c-12.613,0.284-25.244,0.153-37.861-0.105c-8.631-0.179-15.262-4.316-20.481-11.183c-44.92-59.075-89.907-118.102-134.878-177.139
	c-1.499-1.967-3.05-3.895-5.757-5.584c-0.16,2.73-0.459,5.463-0.461,8.195c-0.022,56.562-0.008,113.125-0.007,169.687
	c0,12.388-3.445,16.118-15.721,16.276c-13.97,0.179-27.946,0.181-41.915-0.025c-11.731-0.174-15.171-3.929-15.171-15.719
	c-0.001-95.279-0.001-190.561-0.001-285.838c0-12.419,3.442-15.994,15.809-16.073c12.792-0.082,25.587-0.018,38.381,0.014
	c9.577,0.023,17.046,3.952,22.88,11.64c43.341,57.102,86.778,114.132,130.19,171.182c1.301,1.709,2.654,3.38,3.983,5.067
	C404.406,551.586,404.846,551.436,405.286,551.285z"/>
<path fill="none" stroke="#000000" stroke-miterlimit="10" d="M705.585,552.521c0.248-2.771,0.709-5.546,0.711-8.318
	c0.042-55.051,0.029-110.102,0.032-165.15c0.001-11.231,3.958-15.233,15.109-15.25c13.636-0.018,27.272-0.052,40.908,0.012
	c9.883,0.045,14.1,4.306,14.102,14.219c0.015,96.464,0.015,192.928,0.001,289.392c-0.001,9.612-4.138,13.931-13.761,14.065
	c-11.108,0.154-22.223,0.15-33.332-0.004c-9.334-0.129-16.688-4.103-22.404-11.623c-45.312-59.625-90.711-119.186-136.109-178.746
	c-1.468-1.926-3.211-3.643-4.826-5.457c-0.527,0.125-1.057,0.251-1.584,0.375c-0.35,2.848-1.002,5.696-1.005,8.544
	c-0.062,56.229-0.048,112.457-0.051,168.685c0,2.021,0.042,4.043-0.031,6.062c-0.252,7.009-4.076,11.751-11.098,11.919
	c-15.979,0.384-31.981,0.416-47.957-0.013c-7.302-0.195-11-5.205-11.004-13.029c-0.022-43.435-0.011-86.868-0.011-130.301
	c0-53.199-0.002-106.397,0.004-159.597c0.001-10.25,4.113-14.445,14.328-14.489c12.289-0.056,24.579,0.002,36.868-0.016
	c9.559-0.013,17.149,3.667,23.003,11.375c43.773,57.625,87.62,115.191,131.475,172.755c1.443,1.896,3.203,3.55,4.814,5.316
	C704.373,553.005,704.979,552.765,705.585,552.521z"/>
<path fill="none" stroke="#000000" stroke-miterlimit="10" d="M1511.73,629.319c2.073,0,4.08,0,6.088,0
	c54.543,0,109.097-0.702,163.623,0.188c59.267,0.969,98.43-48.771,90.98-105.233c-4.646-35.222-23.066-60.685-56.779-73.357
	c-9.094-3.418-19.324-5.056-29.076-5.242c-32.479-0.623-64.979,0.062-97.463-0.316c-16.112-0.187-28.24,6.141-37.222,19.189
	c-0.535,0.776-1.176,1.479-2.604,3.259c0.132-20.41-2.549-39.859,7.924-57.601c11.775-19.951,29.224-31.198,52.359-31.668
	c29.275-0.598,58.604-0.785,87.857,0.244c72.013,2.534,135.223,57.474,148.609,128.231c17.276,91.314-45.778,177.436-138.232,188.62
	c-7.496,0.907-15.112,1.124-22.674,1.141c-48.482,0.108-96.966-0.052-145.445,0.213c-7.229,0.038-12.656-2.559-17.494-7.331
	c-5.699-5.623-9.828-12.476-10.257-20.335C1511.214,656.267,1511.73,643.145,1511.73,629.319z"/>
<path fill="none" stroke="#000000" stroke-miterlimit="10" d="M1352.378,677.973c-10.722,13.251-23.925,20.4-39.572,22.814
	c-28.736,4.436-55.981-11.164-67.216-37.952c-38.039-90.699-76.104-181.39-114.154-272.084c-0.638-1.523-1.209-3.073-1.785-4.54
	c22.256-14.695,56.71-14.072,78.835,10.15c5.102,5.584,9.39,12.428,12.293,19.422c30.104,72.513,59.844,145.178,89.699,217.793
	c1.278,3.108,2.661,6.179,4.082,9.226C1322.271,659.338,1332.351,673.41,1352.378,677.973z"/>
<path fill="none" stroke="#000000" stroke-miterlimit="10" d="M64.921,374.659c28.835,0,56.904-0.001,84.972,0.013
	c0.812,0.001,1.625,0.197,3.238,0.406c0,2.043,0,3.996,0,5.948c-0.04,100.554-0.073,201.108-0.127,301.66
	c-0.006,10.604-3.7,13.775-15.96,13.79c-19.144,0.022-38.286,0.039-57.429-0.006c-10.839-0.026-15.005-3.659-15.005-13.042
	c0-101.104,0.017-202.207,0.042-303.311C64.651,378.505,64.806,376.895,64.921,374.659z"/>
<path fill="none" stroke="#000000" stroke-miterlimit="10" d="M1490.729,398.606c-21.479,8.062-32.865,24.625-41.158,44.755
	c-31.002,75.252-62.559,150.276-93.739,225.457c-1.865,4.498-3.987,5.23-8.236,3.674c-8.721-3.196-16.18-8.455-20.548-16.354
	c-7.302-13.195-13.451-27.035-19.835-40.721c-0.606-1.302,0.278-3.539,0.933-5.154c24.946-61.739,50.004-123.436,74.888-185.199
	c4.237-10.52,8.646-20.736,16.913-28.92c18.273-18.087,45.574-23.304,69.088-12.973
	C1477.222,386.771,1485.049,390.833,1490.729,398.606z"/>
<path fill="none" stroke="#000000" stroke-miterlimit="10" d="M1524.023,696.645c-21.42,0.314-41.552,2.159-59.293-10.171
	c-17.792-12.362-27.805-29.295-27.989-50.967c-0.419-48.963-0.219-97.93-0.188-146.896c0.001-2.115,0.504-4.359,1.311-6.322
	c6.255-15.239,12.491-30.49,19.033-45.606c6.529-15.089,17.069-26.376,32.312-33.136c3.747-1.661,5.669-0.799,7.654,2.546
	c6.411,10.805,9.925,22.307,9.933,34.951c0.049,71.851,0.305,143.699,0.213,215.548
	C1506.988,671.988,1510.367,685.586,1524.023,696.645z"/>
<path fill="none" stroke="#000000" stroke-miterlimit="10" d="M1619.466,449.688c0,49.504,0,98.419,0,147.745
	c-10.862,1.132-21.202-0.23-31.18-4.234c-23.415-9.396-38.938-32.169-39.091-57.446c-0.1-16.327-0.045-32.655-0.012-48.982
	c0.036-17.536,16.413-35.863,33.881-36.941C1594.951,449.094,1606.919,449.688,1619.466,449.688z"/>
<path fill="none" stroke="#000000" stroke-miterlimit="10" d="M1069.689,530.655c-1.295,41.595-14.959,72.259-48.037,91.233
	c-52.457,30.095-126.774,5.736-141.203-66.16c-6.678-33.278-0.159-64.274,22.906-89.996c24.83-27.688,56.783-36.015,92.298-27.979
	c35.875,8.116,58.528,31.719,69.196,66.537C1067.868,514.141,1068.637,524.68,1069.689,530.655z"/>
</svg>
